HIERARCHY
ROOT Pelvis
{
	OFFSET 0.000000 0.000000 0.000000
	CHANNELS 6 Xposition Yposition Zposition Xrotation Yrotation Zrotation
	JOINT LeftUpLeg_virtual
	{
		OFFSET 0.000000 0.000000 0.000000
		CHANNELS 3 Xrotation Yrotation Zrotation
		JOINT LeftUpLeg
		{
			OFFSET 18.735201 -5.666702 -4.541200
			CHANNELS 3 Xrotation Yrotation Zrotation
			JOINT LeftLeg
			{
				OFFSET -0.021200 -31.938179 0.493100
				CHANNELS 3 Xrotation Yrotation Zrotation
				JOINT LeftFoot
				{
					OFFSET 0.021200 -31.938179 -4.336299
					CHANNELS 3 Xrotation Yrotation Zrotation
					JOINT LeftToeBase
					{
						OFFSET 0.943001 -26.722000 15.023500
						CHANNELS 3 Xrotation Yrotation Zrotation
						End Site
						{
							OFFSET 0 0 0
						}
					}
				}
			}
		}
	}
	JOINT RightUpLeg_virtual
	{
		OFFSET 0.000000 0.000000 0.000000
		CHANNELS 3 Xrotation Yrotation Zrotation
		JOINT RightUpLeg
		{
			OFFSET -18.735201 -5.666702 -4.541200
			CHANNELS 3 Xrotation Yrotation Zrotation
			JOINT RightLeg
			{
				OFFSET 0.018946 -31.938133 0.493100
				CHANNELS 3 Xrotation Yrotation Zrotation
				JOINT RightFoot
				{
					OFFSET -0.018946 -31.938126 -4.336299
					CHANNELS 3 Xrotation Yrotation Zrotation
					JOINT RightToeBase
					{
						OFFSET -0.943001 -26.722004 15.023500
						CHANNELS 3 Xrotation Yrotation Zrotation
						End Site
						{
							OFFSET 0 0 0
						}
					}
				}
			}
		}
	}
	JOINT Hips_virtual
	{
		OFFSET 0.000000 0.000000 0.000000
		CHANNELS 3 Xrotation Yrotation Zrotation
		JOINT Hips
		{
			OFFSET -0.000000 -0.000000 -0.000000
			CHANNELS 3 Xrotation Yrotation Zrotation
			JOINT Spine
			{
				OFFSET 0.000000 10.199997 -0.299500
				CHANNELS 3 Xrotation Yrotation Zrotation
				JOINT Spine1
				{
					OFFSET 0.000000 11.900002 -1.516600
					CHANNELS 3 Xrotation Yrotation Zrotation
					JOINT Spine2
					{
						OFFSET 0.000000 13.600006 -2.842500
						CHANNELS 3 Xrotation Yrotation Zrotation
						JOINT Neck_virtual
						{
							OFFSET 0.000000 0.000000 0.000000
							CHANNELS 3 Xrotation Yrotation Zrotation
							JOINT Neck
							{
								OFFSET 0.000000 9.624100 -2.890100
								CHANNELS 3 Xrotation Yrotation Zrotation
								JOINT Head
								{
									OFFSET 0.000000 14.068802 -1.351900
									CHANNELS 3 Xrotation Yrotation Zrotation
									End Site
									{
										OFFSET 0 0 0
									}
								}
							}
						}
						JOINT LeftShoulder_virtual
						{
							OFFSET 0.000000 0.000000 0.000000
							CHANNELS 3 Xrotation Yrotation Zrotation
							JOINT LeftShoulder
							{
								OFFSET 15.263000 10.923401 -0.547700
								CHANNELS 3 Xrotation Yrotation Zrotation
								JOINT LeftArm
								{
									OFFSET 25.438599 -2.830597 -13.032500
									CHANNELS 3 Xrotation Yrotation Zrotation
									JOINT LeftForeArm
									{
										OFFSET 29.960503 0.000000 0.000000
										CHANNELS 3 Xrotation Yrotation Zrotation
										JOINT LeftHand
										{
											OFFSET 27.849251 0.000000 0.000000
											CHANNELS 3 Xrotation Yrotation Zrotation
											End Site
											{
												OFFSET 0 0 0
											}
										}
									}
								}
							}
						}
						JOINT RightShoulder_virtual
						{
							OFFSET 0.000000 0.000000 0.000000
							CHANNELS 3 Xrotation Yrotation Zrotation
							JOINT RightShoulder
							{
								OFFSET -15.263000 10.923401 -0.547700
								CHANNELS 3 Xrotation Yrotation Zrotation
								JOINT RightArm
								{
									OFFSET -25.438599 -2.830597 -13.032500
									CHANNELS 3 Xrotation Yrotation Zrotation
									JOINT RightForeArm
									{
										OFFSET -29.960503 0.000000 0.000000
										CHANNELS 3 Xrotation Yrotation Zrotation
										JOINT RightHand
										{
											OFFSET -27.849251 0.000000 0.000000
											CHANNELS 3 Xrotation Yrotation Zrotation
											End Site
											{
												OFFSET 0 0 0
											}
										}
									}
								}
							}
						}
					}
				}
			}
		}
	}
}
MOTION
Frames: 9
Frame Time: 0.03333333
-3.590163 78.086502 3.767485 0.000000 0.000000 0.000000 -7.672509 -25.086356 3.380733 -55.919783 -0.009902 22.162461 52.277100 -8.742634 -2.400663 -0.956970 -8.121652 -15.601351 0.000000 0.000000 0.000000 10.424553 -31.659873 -2.081731 -20.627096 -13.513731 -22.999487 47.601596 7.390964 0.820263 -11.286213 2.132662 18.264501 0.000000 0.000000 0.000000 1.091928 -20.066746 0.745363 4.600688 -35.546220 5.633040 11.638057 5.505684 -4.186287 5.643713 4.060343 -2.778416 0.000000 0.000000 0.000000 -0.015105 5.476762 -2.520269 -2.108818 2.701431 -0.387869 0.000000 0.000000 0.000000 -3.088581 4.146224 -2.904792 -3.776501 -2.459716 -6.458347 -31.174356 13.458872 -48.148479 -10.733158 -26.217681 -8.312707 0.000000 0.000000 0.000000 -4.236863 6.146106 -1.867811 -5.336348 22.796185 0.430117 -20.511152 -15.291463 48.718493 -11.377547 25.813547 14.756026 0.000000 0.000000 0.000000 
-3.602099 78.068161 3.673624 0.000000 0.000000 0.000000 -7.796047 -25.328145 3.402768 -56.066530 -0.116033 22.190197 52.398472 -8.681863 -2.425343 -0.812679 -8.064216 -15.611704 0.000000 0.000000 0.000000 10.443352 -31.308108 -2.115387 -20.547917 -13.423226 -22.965768 47.706252 7.467069 0.830068 -11.234485 2.197523 18.332342 0.000000 0.000000 0.000000 1.090647 -20.201090 0.753548 4.514191 -35.618115 5.474316 11.645366 5.522005 -4.172029 5.690964 4.079059 -2.778621 0.000000 0.000000 0.000000 0.043059 5.502275 -2.541527 -2.091544 2.708127 -0.390402 0.000000 0.000000 0.000000 -3.102607 4.200448 -2.882266 -3.777379 -2.453735 -6.108548 -30.979293 13.470950 -48.268182 -10.616832 -26.099550 -8.378256 0.000000 0.000000 0.000000 -4.292083 6.239338 -1.875348 -5.360752 22.962560 0.466320 -20.303594 -15.236339 48.662178 -11.266308 25.606169 14.791797 0.000000 0.000000 0.000000 
-3.631598 78.033241 3.499053 0.000000 0.000000 0.000000 -8.018038 -25.839299 3.447671 -56.335957 -0.328286 22.243899 52.652668 -8.563827 -2.467902 -0.530427 -7.952734 -15.622540 0.000000 0.000000 0.000000 10.474280 -30.651799 -2.178022 -20.411687 -13.252665 -22.903892 47.929814 7.603744 0.846613 -11.117321 2.317664 18.455994 0.000000 0.000000 0.000000 1.096310 -20.479040 0.777341 4.332401 -35.736192 5.164926 11.659962 5.557748 -4.139198 5.779820 4.111087 -2.776683 0.000000 0.000000 0.000000 0.152278 5.548983 -2.579341 -2.057106 2.716425 -0.393808 0.000000 0.000000 0.000000 -3.122093 4.301588 -2.843589 -3.774009 -2.438029 -5.461946 -30.555514 13.491452 -48.493541 -10.384261 -25.891406 -8.500036 0.000000 0.000000 0.000000 -4.386731 6.411743 -1.884712 -5.409345 23.273719 0.548428 -19.976442 -15.089939 48.517931 -11.060533 25.249174 14.847672 0.000000 0.000000 0.000000 
-3.685014 77.986732 3.267368 0.000000 0.000000 0.000000 -8.300346 -26.665810 3.511100 -56.690618 -0.645058 22.316060 53.063709 -8.397660 -2.516001 -0.116049 -7.797522 -15.618718 0.000000 0.000000 0.000000 10.506853 -29.772866 -2.262887 -20.254376 -13.020363 -22.825000 48.292634 7.777627 0.864561 -10.914441 2.479208 18.616690 0.000000 0.000000 0.000000 1.124070 -20.906862 0.828966 4.047516 -35.864237 4.724791 11.688217 5.617836 -4.082289 5.901876 4.148528 -2.768567 0.000000 0.000000 0.000000 0.301535 5.609882 -2.625467 -2.006106 2.718531 -0.395141 0.000000 0.000000 0.000000 -3.132262 4.437435 -2.798400 -3.758126 -2.405267 -4.609024 -29.856089 13.511404 -48.802928 -10.038339 -25.641657 -8.662174 0.000000 0.000000 0.000000 -4.494030 6.640219 -1.887079 -5.480893 23.696500 0.691315 -19.669744 -14.793116 48.236295 -10.792036 24.841120 14.896839 0.000000 0.000000 0.000000 
-3.763398 77.937660 3.007780 0.000000 0.000000 0.000000 -8.608533 -27.859978 3.575299 -57.094221 -1.061118 22.387999 53.666401 -8.200603 -2.553858 0.432854 -7.620108 -15.586338 0.000000 0.000000 0.000000 10.530400 -28.768620 -2.365336 -20.114467 -12.748228 -22.745986 48.807791 7.968698 0.877680 -10.610564 2.671206 18.796703 0.000000 0.000000 0.000000 1.192874 -21.471699 0.920933 3.666660 -35.977058 4.189761 11.749381 5.707252 -3.998654 6.049884 4.185116 -2.749515 0.000000 0.000000 0.000000 0.480321 5.677660 -2.669879 -1.939950 2.707551 -0.390809 0.000000 0.000000 0.000000 -3.115921 4.594439 -2.755063 -3.721382 -2.344684 -3.653862 -28.847762 13.513674 -49.176447 -9.587325 -25.406335 -8.846328 0.000000 0.000000 0.000000 -4.583656 6.899852 -1.873784 -5.572341 24.199927 0.909126 -19.521635 -14.283120 47.770432 -10.502245 24.495285 14.907818 0.000000 0.000000 0.000000 
-3.859477 77.896759 2.749411 0.000000 0.000000 0.000000 -8.924276 -29.473325 3.603330 -57.521319 -1.566739 22.426550 54.497953 -7.999116 -2.564607 1.128653 -7.455081 -15.518203 0.000000 0.000000 0.000000 10.536126 -27.733256 -2.486513 -20.024825 -12.457106 -22.689123 49.467720 8.168990 0.880264 -10.206715 2.890687 18.985476 0.000000 0.000000 0.000000 1.319695 -22.132962 1.060539 3.221787 -36.077647 3.610473 11.874842 5.829735 -3.890830 6.220255 4.219202 -2.714833 0.000000 0.000000 0.000000 0.681635 5.746674 -2.702412 -1.860613 2.680587 -0.377270 0.000000 0.000000 0.000000 -3.057396 4.760724 -2.717033 -3.658259 -2.242663 -2.691629 -27.528799 13.470234 -49.603610 -9.044217 -25.236451 -9.035372 0.000000 0.000000 0.000000 -4.629016 7.169713 -1.838171 -5.679047 24.764806 1.211963 -19.620473 -13.510529 47.092819 -10.231292 24.313776 14.849632 0.000000 0.000000 0.000000 
-3.959232 77.871033 2.516180 0.000000 0.000000 0.000000 -9.248390 -31.557069 3.539576 -57.957987 -2.149161 22.385858 55.584862 -7.828052 -2.532423 1.987749 -7.348360 -15.416823 0.000000 0.000000 0.000000 10.517607 -26.744398 -2.633956 -20.009435 -12.163269 -22.679614 50.237124 8.385344 0.867954 -9.725903 3.143636 19.181719 0.000000 0.000000 0.000000 1.512004 -22.829392 1.245000 2.770111 -36.200529 3.043737 12.098032 5.987537 -3.765531 6.412575 4.254106 -2.660208 0.000000 0.000000 0.000000 0.902227 5.813788 -2.713692 -1.769889 2.639823 -0.351463 0.000000 0.000000 0.000000 -2.945678 4.927721 -2.681634 -3.567946 -2.084587 -1.793987 -25.929714 13.342070 -50.085542 -8.422660 -25.168656 -9.215377 0.000000 0.000000 0.000000 -4.612136 7.435353 -1.775401 -5.796599 25.385057 1.606613 -19.981283 -12.448253 46.200615 -10.004252 24.368042 14.694020 0.000000 0.000000 0.000000 
-4.046236 77.857544 2.323982 0.000000 0.000000 0.000000 -9.596159 -34.164702 3.316473 -58.395372 -2.795678 22.214596 56.930825 -7.728237 -2.444225 3.020319 -7.352557 -15.295104 0.000000 0.000000 0.000000 10.471593 -25.855375 -2.817499 -20.082633 -11.877036 -22.739858 51.056497 8.636300 0.837621 -9.210014 3.442774 19.391525 0.000000 0.000000 0.000000 1.761887 -23.500311 1.459350 2.383143 -36.401165 2.539102 12.440141 6.181737 -3.629993 6.626801 4.295818 -2.581636 0.000000 0.000000 0.000000 1.140753 5.877838 -2.695296 -1.668521 2.591152 -0.310811 0.000000 0.000000 0.000000 -2.776218 5.090392 -2.641286 -3.454750 -1.858649 -1.003339 -24.100971 13.082542 -50.630871 -7.731632 -25.221966 -9.375630 0.000000 0.000000 0.000000 -4.525477 7.688239 -1.681284 -5.923536 26.062226 2.099802 -20.549765 -11.091675 45.110042 -9.820356 24.687550 14.415517 0.000000 0.000000 0.000000 
-4.105808 77.840866 2.180865 0.000000 0.000000 0.000000 -9.990883 -37.347194 2.864015 -58.821856 -3.496155 21.866106 58.511922 -7.742543 -2.291160 4.221030 -7.520408 -15.175524 0.000000 0.000000 0.000000 10.400688 -25.093343 -3.041812 -20.247269 -11.603977 -22.881766 51.855155 8.945967 0.786761 -8.709253 3.804197 19.624609 0.000000 0.000000 0.000000 2.046363 -24.109924 1.679090 2.129862 -36.738215 2.129257 12.900358 6.412180 -3.487605 6.860094 4.349664 -2.475288 0.000000 0.000000 0.000000 1.395544 5.938047 -2.639498 -1.555883 2.541004 -0.252875 0.000000 0.000000 0.000000 -2.551256 5.246438 -2.586106 -3.327362 -1.560236 -0.333592 -22.096552 12.644173 -51.247435 -6.972112 -25.400785 -9.507177 0.000000 0.000000 0.000000 -4.370843 7.923874 -1.551532 -6.063805 26.798003 2.701253 -21.225732 -9.452559 43.846280 -9.651383 25.258017 13.992139 0.000000 0.000000 0.000000 
